<mxfile host="65bd71144e">
    <diagram name="Page-1" id="c4acf3e9-155e-7222-9cf6-157b1a14988f">
        <mxGraphModel dx="1451" dy="417" grid="1" gridSize="10" guides="1" tooltips="1" connect="1" arrows="1" fold="1" page="1" pageScale="1" pageWidth="850" pageHeight="1100" background="none" math="0" shadow="0">
            <root>
                <mxCell id="0"/>
                <mxCell id="1" parent="0"/>
                <mxCell id="65zcl7MSxenypw05f_Zg-71" value="" style="shape=folder;fontStyle=1;spacingTop=10;tabWidth=40;tabHeight=14;tabPosition=left;html=1;whiteSpace=wrap;fillColor=#f5f5f5;fontColor=#333333;strokeColor=#666666;" parent="1" vertex="1">
                    <mxGeometry x="-830" y="724" width="219.45" height="216" as="geometry"/>
                </mxCell>
                <mxCell id="65zcl7MSxenypw05f_Zg-139" value="" style="shape=folder;fontStyle=1;spacingTop=10;tabWidth=40;tabHeight=14;tabPosition=left;html=1;whiteSpace=wrap;fillColor=#f5f5f5;fontColor=#333333;strokeColor=#666666;" parent="1" vertex="1">
                    <mxGeometry x="-584.55" y="835" width="369.5" height="165" as="geometry"/>
                </mxCell>
                <mxCell id="65zcl7MSxenypw05f_Zg-100" value="" style="shape=folder;fontStyle=1;spacingTop=10;tabWidth=40;tabHeight=14;tabPosition=left;html=1;whiteSpace=wrap;fillColor=#f5f5f5;fontColor=#333333;strokeColor=#666666;" parent="1" vertex="1">
                    <mxGeometry x="-195.5" y="280" width="180" height="560" as="geometry"/>
                </mxCell>
                <mxCell id="65zcl7MSxenypw05f_Zg-74" value="" style="shape=folder;fontStyle=1;spacingTop=10;tabWidth=40;tabHeight=14;tabPosition=left;html=1;whiteSpace=wrap;fillColor=#f5f5f5;fontColor=#333333;strokeColor=#666666;" parent="1" vertex="1">
                    <mxGeometry x="-571.55" y="644" width="162.05" height="166" as="geometry"/>
                </mxCell>
                <mxCell id="65zcl7MSxenypw05f_Zg-70" value="" style="shape=folder;fontStyle=1;spacingTop=10;tabWidth=40;tabHeight=14;tabPosition=left;html=1;whiteSpace=wrap;fillColor=#f5f5f5;fontColor=#333333;strokeColor=#666666;" parent="1" vertex="1">
                    <mxGeometry x="-797.5" y="554" width="115.95" height="56" as="geometry"/>
                </mxCell>
                <mxCell id="65zcl7MSxenypw05f_Zg-69" value="" style="shape=folder;fontStyle=1;spacingTop=10;tabWidth=40;tabHeight=14;tabPosition=left;html=1;whiteSpace=wrap;fillColor=#f5f5f5;fontColor=#333333;strokeColor=#666666;" parent="1" vertex="1">
                    <mxGeometry x="-840" y="310" width="172.5" height="75" as="geometry"/>
                </mxCell>
                <mxCell id="65zcl7MSxenypw05f_Zg-67" value="" style="shape=folder;fontStyle=1;spacingTop=10;tabWidth=40;tabHeight=14;tabPosition=left;html=1;whiteSpace=wrap;fillColor=#f5f5f5;fontColor=#333333;strokeColor=#666666;" parent="1" vertex="1">
                    <mxGeometry x="-649.55" y="80" width="115" height="80" as="geometry"/>
                </mxCell>
                <mxCell id="65zcl7MSxenypw05f_Zg-66" value="" style="shape=folder;fontStyle=1;spacingTop=10;tabWidth=40;tabHeight=14;tabPosition=left;html=1;whiteSpace=wrap;fillColor=#f5f5f5;fontColor=#333333;strokeColor=#666666;" parent="1" vertex="1">
                    <mxGeometry x="-674.55" y="169" width="170" height="130" as="geometry"/>
                </mxCell>
                <mxCell id="65zcl7MSxenypw05f_Zg-65" value="" style="shape=folder;fontStyle=1;spacingTop=10;tabWidth=40;tabHeight=14;tabPosition=left;html=1;whiteSpace=wrap;fillColor=#f5f5f5;fontColor=#333333;strokeColor=#666666;" parent="1" vertex="1">
                    <mxGeometry x="-397.5" y="179" width="160" height="121" as="geometry"/>
                </mxCell>
                <mxCell id="65zcl7MSxenypw05f_Zg-61" value="" style="shape=folder;fontStyle=1;spacingTop=10;tabWidth=40;tabHeight=14;tabPosition=left;html=1;whiteSpace=wrap;fillColor=#f5f5f5;fontColor=#333333;strokeColor=#666666;" parent="1" vertex="1">
                    <mxGeometry x="-664.55" y="310" width="407.05" height="309" as="geometry"/>
                </mxCell>
                <mxCell id="65zcl7MSxenypw05f_Zg-10" style="edgeStyle=orthogonalEdgeStyle;rounded=0;orthogonalLoop=1;jettySize=auto;html=1;dashed=1;entryX=1;entryY=0.5;entryDx=0;entryDy=0;exitX=0.425;exitY=0.067;exitDx=0;exitDy=0;exitPerimeter=0;" parent="1" source="65zcl7MSxenypw05f_Zg-5" target="65zcl7MSxenypw05f_Zg-11" edge="1">
                    <mxGeometry relative="1" as="geometry"/>
                </mxCell>
                <mxCell id="65zcl7MSxenypw05f_Zg-22" value="&lt;span style=&quot;font-size: 25px;&quot;&gt;*&lt;/span&gt;" style="edgeStyle=orthogonalEdgeStyle;rounded=0;orthogonalLoop=1;jettySize=auto;html=1;labelBackgroundColor=none;" parent="1" target="65zcl7MSxenypw05f_Zg-13" edge="1">
                    <mxGeometry x="0.6154" y="10" relative="1" as="geometry">
                        <mxPoint x="-491.5" y="420" as="sourcePoint"/>
                        <mxPoint as="offset"/>
                    </mxGeometry>
                </mxCell>
                <mxCell id="65zcl7MSxenypw05f_Zg-23" value="&lt;span style=&quot;font-size: 25px;&quot;&gt;*&lt;/span&gt;" style="edgeStyle=orthogonalEdgeStyle;rounded=0;orthogonalLoop=1;jettySize=auto;html=1;entryX=0.25;entryY=0;entryDx=0;entryDy=0;labelBackgroundColor=none;" parent="1" target="65zcl7MSxenypw05f_Zg-14" edge="1">
                    <mxGeometry x="0.8784" y="12" relative="1" as="geometry">
                        <mxPoint x="-344.5" y="420" as="sourcePoint"/>
                        <mxPoint as="offset"/>
                    </mxGeometry>
                </mxCell>
                <mxCell id="65zcl7MSxenypw05f_Zg-24" value="&lt;span style=&quot;font-size: 25px;&quot;&gt;*&lt;/span&gt;" style="rounded=0;orthogonalLoop=1;jettySize=auto;html=1;entryX=0.75;entryY=0;entryDx=0;entryDy=0;labelBackgroundColor=none;" parent="1" edge="1">
                    <mxGeometry x="0.8451" y="11" relative="1" as="geometry">
                        <mxPoint x="-639.8" y="422" as="sourcePoint"/>
                        <mxPoint x="-639.8" y="474" as="targetPoint"/>
                        <mxPoint as="offset"/>
                    </mxGeometry>
                </mxCell>
                <mxCell id="65zcl7MSxenypw05f_Zg-28" style="rounded=0;orthogonalLoop=1;jettySize=auto;html=1;entryX=0.998;entryY=0.382;entryDx=0;entryDy=0;dashed=1;exitX=0;exitY=0.5;exitDx=0;exitDy=0;entryPerimeter=0;" parent="1" source="65zcl7MSxenypw05f_Zg-107" target="65zcl7MSxenypw05f_Zg-16" edge="1">
                    <mxGeometry relative="1" as="geometry"/>
                </mxCell>
                <mxCell id="65zcl7MSxenypw05f_Zg-5" value="Tournament" style="swimlane;fontStyle=0;childLayout=stackLayout;horizontal=1;startSize=26;fillColor=#dae8fc;horizontalStack=0;resizeParent=1;resizeParentMax=0;resizeLast=0;collapsible=1;marginBottom=0;whiteSpace=wrap;html=1;strokeColor=#6c8ebf;" parent="1" vertex="1">
                    <mxGeometry x="-647.5" y="390" width="370" height="32" as="geometry"/>
                </mxCell>
                <mxCell id="65zcl7MSxenypw05f_Zg-9" value="Country" style="swimlane;fontStyle=0;childLayout=stackLayout;horizontal=1;startSize=26;horizontalStack=0;resizeParent=1;resizeParentMax=0;resizeLast=0;collapsible=1;marginBottom=0;whiteSpace=wrap;html=1;labelBackgroundColor=none;" parent="1" vertex="1">
                    <mxGeometry x="-659.55" y="199" width="140" height="30" as="geometry"/>
                </mxCell>
                <mxCell id="65zcl7MSxenypw05f_Zg-12" style="edgeStyle=orthogonalEdgeStyle;rounded=0;orthogonalLoop=1;jettySize=auto;html=1;dashed=1;exitX=0.483;exitY=-0.003;exitDx=0;exitDy=0;entryX=1;entryY=0.5;entryDx=0;entryDy=0;exitPerimeter=0;" parent="1" source="65zcl7MSxenypw05f_Zg-5" target="65zcl7MSxenypw05f_Zg-9" edge="1">
                    <mxGeometry relative="1" as="geometry">
                        <mxPoint x="-641.55" y="410" as="sourcePoint"/>
                        <mxPoint x="-281.55" y="314" as="targetPoint"/>
                    </mxGeometry>
                </mxCell>
                <mxCell id="65zcl7MSxenypw05f_Zg-13" value="Field" style="swimlane;fontStyle=0;childLayout=stackLayout;horizontal=1;startSize=26;horizontalStack=0;resizeParent=1;resizeParentMax=0;resizeLast=0;collapsible=1;marginBottom=0;whiteSpace=wrap;html=1;" parent="1" vertex="1">
                    <mxGeometry x="-526.55" y="474" width="70" height="30" as="geometry"/>
                </mxCell>
                <mxCell id="65zcl7MSxenypw05f_Zg-21" value="&lt;span style=&quot;font-size: 25px;&quot;&gt;*&lt;/span&gt;" style="edgeStyle=orthogonalEdgeStyle;rounded=0;orthogonalLoop=1;jettySize=auto;html=1;entryX=0.5;entryY=0;entryDx=0;entryDy=0;labelBackgroundColor=none;" parent="1" source="65zcl7MSxenypw05f_Zg-14" target="65zcl7MSxenypw05f_Zg-18" edge="1">
                    <mxGeometry x="-0.3329" y="-11" relative="1" as="geometry">
                        <mxPoint as="offset"/>
                    </mxGeometry>
                </mxCell>
                <mxCell id="65zcl7MSxenypw05f_Zg-14" value="Day" style="swimlane;fontStyle=0;childLayout=stackLayout;horizontal=1;startSize=26;horizontalStack=0;resizeParent=1;resizeParentMax=0;resizeLast=0;collapsible=1;marginBottom=0;whiteSpace=wrap;html=1;" parent="1" vertex="1">
                    <mxGeometry x="-365.55" y="474" width="86" height="30" as="geometry"/>
                </mxCell>
                <mxCell id="65zcl7MSxenypw05f_Zg-27" value="&lt;span style=&quot;font-size: 25px;&quot;&gt;*&lt;/span&gt;" style="edgeStyle=orthogonalEdgeStyle;rounded=0;orthogonalLoop=1;jettySize=auto;html=1;" parent="1" source="65zcl7MSxenypw05f_Zg-15" target="65zcl7MSxenypw05f_Zg-26" edge="1">
                    <mxGeometry x="0.5" y="9" relative="1" as="geometry">
                        <mxPoint as="offset"/>
                    </mxGeometry>
                </mxCell>
                <mxCell id="65zcl7MSxenypw05f_Zg-15" value="Division" style="swimlane;fontStyle=0;childLayout=stackLayout;horizontal=1;startSize=26;horizontalStack=0;resizeParent=1;resizeParentMax=0;resizeLast=0;collapsible=1;marginBottom=0;whiteSpace=wrap;html=1;" parent="1" vertex="1">
                    <mxGeometry x="-653.55" y="474" width="69" height="30" as="geometry"/>
                </mxCell>
                <mxCell id="65zcl7MSxenypw05f_Zg-29" style="edgeStyle=orthogonalEdgeStyle;rounded=0;orthogonalLoop=1;jettySize=auto;html=1;entryX=-0.011;entryY=0.291;entryDx=0;entryDy=0;dashed=1;entryPerimeter=0;exitX=0.5;exitY=0;exitDx=0;exitDy=0;" parent="1" source="65zcl7MSxenypw05f_Zg-16" target="65zcl7MSxenypw05f_Zg-17" edge="1">
                    <mxGeometry relative="1" as="geometry">
                        <Array as="points">
                            <mxPoint x="-739.5" y="113"/>
                        </Array>
                    </mxGeometry>
                </mxCell>
                <mxCell id="65zcl7MSxenypw05f_Zg-111" style="edgeStyle=orthogonalEdgeStyle;rounded=0;orthogonalLoop=1;jettySize=auto;html=1;entryX=0;entryY=0.5;entryDx=0;entryDy=0;exitX=1;exitY=1;exitDx=0;exitDy=0;labelBackgroundColor=none;dashed=1;fillColor=#fff2cc;strokeColor=#000000;" parent="1" source="65zcl7MSxenypw05f_Zg-16" target="65zcl7MSxenypw05f_Zg-5" edge="1">
                    <mxGeometry relative="1" as="geometry"/>
                </mxCell>
                <mxCell id="65zcl7MSxenypw05f_Zg-16" value="Attendee" style="swimlane;fontStyle=0;childLayout=stackLayout;horizontal=1;startSize=26;fillColor=#dae8fc;horizontalStack=0;resizeParent=1;resizeParentMax=0;resizeLast=0;collapsible=1;marginBottom=0;whiteSpace=wrap;html=1;strokeColor=#6c8ebf;" parent="1" vertex="1">
                    <mxGeometry x="-830" y="335" width="152.5" height="32" as="geometry"/>
                </mxCell>
                <mxCell id="65zcl7MSxenypw05f_Zg-30" style="edgeStyle=orthogonalEdgeStyle;rounded=0;orthogonalLoop=1;jettySize=auto;html=1;dashed=1;entryX=0;entryY=0.5;entryDx=0;entryDy=0;exitX=0;exitY=0.75;exitDx=0;exitDy=0;" parent="1" source="65zcl7MSxenypw05f_Zg-17" target="65zcl7MSxenypw05f_Zg-11" edge="1">
                    <mxGeometry relative="1" as="geometry">
                        <Array as="points">
                            <mxPoint x="-694.55" y="134"/>
                            <mxPoint x="-694.55" y="274"/>
                        </Array>
                    </mxGeometry>
                </mxCell>
                <mxCell id="65zcl7MSxenypw05f_Zg-31" style="rounded=0;orthogonalLoop=1;jettySize=auto;html=1;entryX=0.5;entryY=0;entryDx=0;entryDy=0;dashed=1;exitX=0.5;exitY=1;exitDx=0;exitDy=0;" parent="1" source="65zcl7MSxenypw05f_Zg-17" target="65zcl7MSxenypw05f_Zg-9" edge="1">
                    <mxGeometry relative="1" as="geometry"/>
                </mxCell>
                <mxCell id="65zcl7MSxenypw05f_Zg-17" value="Person" style="swimlane;fontStyle=0;childLayout=stackLayout;horizontal=1;startSize=26;fillColor=#dae8fc;horizontalStack=0;resizeParent=1;resizeParentMax=0;resizeLast=0;collapsible=1;marginBottom=0;whiteSpace=wrap;html=1;strokeColor=#6c8ebf;" parent="1" vertex="1">
                    <mxGeometry x="-624.55" y="100" width="70" height="45" as="geometry"/>
                </mxCell>
                <mxCell id="65zcl7MSxenypw05f_Zg-25" value="&lt;span style=&quot;font-size: 25px;&quot;&gt;*&lt;/span&gt;" style="edgeStyle=orthogonalEdgeStyle;rounded=0;orthogonalLoop=1;jettySize=auto;html=1;entryX=0.5;entryY=0;entryDx=0;entryDy=0;labelBackgroundColor=none;" parent="1" source="65zcl7MSxenypw05f_Zg-18" target="65zcl7MSxenypw05f_Zg-19" edge="1">
                    <mxGeometry x="-0.322" y="-11" relative="1" as="geometry">
                        <mxPoint as="offset"/>
                    </mxGeometry>
                </mxCell>
                <mxCell id="65zcl7MSxenypw05f_Zg-109" value="&lt;span style=&quot;font-size: 25px;&quot;&gt;*&lt;/span&gt;" style="edgeStyle=orthogonalEdgeStyle;rounded=0;orthogonalLoop=1;jettySize=auto;html=1;entryX=1;entryY=0.5;entryDx=0;entryDy=0;exitX=0;exitY=0.25;exitDx=0;exitDy=0;labelBackgroundColor=none;dashed=1;fillColor=#fff2cc;strokeColor=#d6b656;strokeWidth=2;" parent="1" source="65zcl7MSxenypw05f_Zg-18" target="65zcl7MSxenypw05f_Zg-13" edge="1">
                    <mxGeometry x="0.8644" y="-9" relative="1" as="geometry">
                        <mxPoint as="offset"/>
                    </mxGeometry>
                </mxCell>
                <mxCell id="65zcl7MSxenypw05f_Zg-18" value="PartDay" style="swimlane;fontStyle=0;childLayout=stackLayout;horizontal=1;startSize=26;horizontalStack=0;resizeParent=1;resizeParentMax=0;resizeLast=0;collapsible=1;marginBottom=0;whiteSpace=wrap;html=1;" parent="1" vertex="1">
                    <mxGeometry x="-365.55" y="524" width="86" height="30" as="geometry"/>
                </mxCell>
                <mxCell id="65zcl7MSxenypw05f_Zg-19" value="TimeSlot" style="swimlane;fontStyle=0;childLayout=stackLayout;horizontal=1;startSize=26;horizontalStack=0;resizeParent=1;resizeParentMax=0;resizeLast=0;collapsible=1;marginBottom=0;whiteSpace=wrap;html=1;" parent="1" vertex="1">
                    <mxGeometry x="-365.55" y="575" width="86" height="36" as="geometry"/>
                </mxCell>
                <mxCell id="65zcl7MSxenypw05f_Zg-20" value="&lt;span style=&quot;font-size: 25px;&quot;&gt;*&lt;/span&gt;" style="edgeStyle=orthogonalEdgeStyle;rounded=0;orthogonalLoop=1;jettySize=auto;html=1;labelBackgroundColor=none;" parent="1" source="65zcl7MSxenypw05f_Zg-11" target="65zcl7MSxenypw05f_Zg-9" edge="1">
                    <mxGeometry x="0.2" y="-10" relative="1" as="geometry">
                        <mxPoint as="offset"/>
                    </mxGeometry>
                </mxCell>
                <mxCell id="65zcl7MSxenypw05f_Zg-11" value="Region" style="swimlane;fontStyle=0;childLayout=stackLayout;horizontal=1;startSize=26;fillColor=#dae8fc;horizontalStack=0;resizeParent=1;resizeParentMax=0;resizeLast=0;collapsible=1;marginBottom=0;whiteSpace=wrap;html=1;strokeColor=#6c8ebf;" parent="1" vertex="1">
                    <mxGeometry x="-659.55" y="259" width="140" height="30" as="geometry"/>
                </mxCell>
                <mxCell id="65zcl7MSxenypw05f_Zg-110" value="&lt;span style=&quot;font-size: 25px;&quot;&gt;*&lt;/span&gt;" style="edgeStyle=orthogonalEdgeStyle;rounded=0;orthogonalLoop=1;jettySize=auto;html=1;dashed=1;labelBackgroundColor=none;exitX=0;exitY=0.5;exitDx=0;exitDy=0;" parent="1" source="65zcl7MSxenypw05f_Zg-26" edge="1">
                    <mxGeometry x="0.7527" y="10" relative="1" as="geometry">
                        <mxPoint x="-707.5" y="370" as="targetPoint"/>
                        <mxPoint as="offset"/>
                    </mxGeometry>
                </mxCell>
                <mxCell id="65zcl7MSxenypw05f_Zg-26" value="Team" style="swimlane;fontStyle=0;childLayout=stackLayout;horizontal=1;startSize=26;horizontalStack=0;resizeParent=1;resizeParentMax=0;resizeLast=0;collapsible=1;marginBottom=0;whiteSpace=wrap;html=1;" parent="1" vertex="1">
                    <mxGeometry x="-653.55" y="534" width="69" height="36" as="geometry"/>
                </mxCell>
                <mxCell id="65zcl7MSxenypw05f_Zg-34" style="edgeStyle=orthogonalEdgeStyle;rounded=0;orthogonalLoop=1;jettySize=auto;html=1;dashed=1;exitX=0.145;exitY=0.019;exitDx=0;exitDy=0;exitPerimeter=0;" parent="1" source="65zcl7MSxenypw05f_Zg-32" edge="1">
                    <mxGeometry relative="1" as="geometry">
                        <mxPoint x="-541.55" y="674" as="sourcePoint"/>
                        <mxPoint x="-541.55" y="424" as="targetPoint"/>
                    </mxGeometry>
                </mxCell>
                <mxCell id="65zcl7MSxenypw05f_Zg-35" style="edgeStyle=orthogonalEdgeStyle;rounded=0;orthogonalLoop=1;jettySize=auto;html=1;entryX=1;entryY=0.5;entryDx=0;entryDy=0;dashed=1;exitX=0;exitY=0;exitDx=0;exitDy=0;" parent="1" source="65zcl7MSxenypw05f_Zg-32" target="65zcl7MSxenypw05f_Zg-15" edge="1">
                    <mxGeometry relative="1" as="geometry"/>
                </mxCell>
                <mxCell id="65zcl7MSxenypw05f_Zg-37" style="edgeStyle=orthogonalEdgeStyle;rounded=0;orthogonalLoop=1;jettySize=auto;html=1;entryX=0;entryY=0.5;entryDx=0;entryDy=0;dashed=1;" parent="1" source="65zcl7MSxenypw05f_Zg-32" target="65zcl7MSxenypw05f_Zg-19" edge="1">
                    <mxGeometry relative="1" as="geometry"/>
                </mxCell>
                <mxCell id="65zcl7MSxenypw05f_Zg-38" style="edgeStyle=orthogonalEdgeStyle;rounded=0;orthogonalLoop=1;jettySize=auto;html=1;entryX=0;entryY=0.5;entryDx=0;entryDy=0;dashed=1;" parent="1" source="65zcl7MSxenypw05f_Zg-32" target="65zcl7MSxenypw05f_Zg-18" edge="1">
                    <mxGeometry relative="1" as="geometry"/>
                </mxCell>
                <mxCell id="65zcl7MSxenypw05f_Zg-39" style="edgeStyle=orthogonalEdgeStyle;rounded=0;orthogonalLoop=1;jettySize=auto;html=1;entryX=0;entryY=0.5;entryDx=0;entryDy=0;dashed=1;" parent="1" source="65zcl7MSxenypw05f_Zg-32" target="65zcl7MSxenypw05f_Zg-14" edge="1">
                    <mxGeometry relative="1" as="geometry"/>
                </mxCell>
                <mxCell id="65zcl7MSxenypw05f_Zg-40" value="home" style="edgeStyle=orthogonalEdgeStyle;rounded=0;orthogonalLoop=1;jettySize=auto;html=1;entryX=0.25;entryY=1;entryDx=0;entryDy=0;dashed=1;exitX=0;exitY=0.75;exitDx=0;exitDy=0;" parent="1" source="65zcl7MSxenypw05f_Zg-32" target="65zcl7MSxenypw05f_Zg-26" edge="1">
                    <mxGeometry x="0.2776" relative="1" as="geometry">
                        <mxPoint x="-582.55" y="704" as="sourcePoint"/>
                        <mxPoint x="-661.55" y="574" as="targetPoint"/>
                        <mxPoint as="offset"/>
                    </mxGeometry>
                </mxCell>
                <mxCell id="65zcl7MSxenypw05f_Zg-41" value="away" style="edgeStyle=orthogonalEdgeStyle;rounded=0;orthogonalLoop=1;jettySize=auto;html=1;dashed=1;entryX=0.75;entryY=1;entryDx=0;entryDy=0;" parent="1" source="65zcl7MSxenypw05f_Zg-32" target="65zcl7MSxenypw05f_Zg-26" edge="1">
                    <mxGeometry relative="1" as="geometry">
                        <mxPoint x="-621.55" y="574" as="targetPoint"/>
                    </mxGeometry>
                </mxCell>
                <mxCell id="65zcl7MSxenypw05f_Zg-97" style="edgeStyle=orthogonalEdgeStyle;rounded=0;orthogonalLoop=1;jettySize=auto;html=1;fillColor=#e6d0de;gradientColor=#d5739d;strokeColor=#996185;" parent="1" source="65zcl7MSxenypw05f_Zg-32" target="65zcl7MSxenypw05f_Zg-96" edge="1">
                    <mxGeometry relative="1" as="geometry"/>
                </mxCell>
                <mxCell id="65zcl7MSxenypw05f_Zg-114" style="edgeStyle=orthogonalEdgeStyle;rounded=0;orthogonalLoop=1;jettySize=auto;html=1;entryX=1;entryY=0.5;entryDx=0;entryDy=0;exitX=0.75;exitY=1;exitDx=0;exitDy=0;dashed=1;" parent="1" source="65zcl7MSxenypw05f_Zg-32" target="65zcl7MSxenypw05f_Zg-47" edge="1">
                    <mxGeometry relative="1" as="geometry">
                        <mxPoint x="-184.5" y="400" as="targetPoint"/>
                        <Array as="points">
                            <mxPoint x="-454.5" y="730"/>
                            <mxPoint x="-454.5" y="750"/>
                            <mxPoint x="-214.5" y="750"/>
                            <mxPoint x="-214.5" y="215"/>
                        </Array>
                    </mxGeometry>
                </mxCell>
                <mxCell id="65zcl7MSxenypw05f_Zg-32" value="Game" style="swimlane;fontStyle=0;childLayout=stackLayout;horizontal=1;startSize=26;fillColor=#dae8fc;horizontalStack=0;resizeParent=1;resizeParentMax=0;resizeLast=0;collapsible=1;marginBottom=0;whiteSpace=wrap;html=1;strokeColor=#6c8ebf;" parent="1" vertex="1">
                    <mxGeometry x="-561.55" y="672" width="140" height="58" as="geometry"/>
                </mxCell>
                <mxCell id="65zcl7MSxenypw05f_Zg-36" style="edgeStyle=orthogonalEdgeStyle;rounded=0;orthogonalLoop=1;jettySize=auto;html=1;entryX=0.5;entryY=1;entryDx=0;entryDy=0;dashed=1;" parent="1" source="65zcl7MSxenypw05f_Zg-32" target="65zcl7MSxenypw05f_Zg-13" edge="1">
                    <mxGeometry relative="1" as="geometry"/>
                </mxCell>
                <mxCell id="65zcl7MSxenypw05f_Zg-43" style="edgeStyle=orthogonalEdgeStyle;rounded=0;orthogonalLoop=1;jettySize=auto;html=1;dashed=1;" parent="1" source="65zcl7MSxenypw05f_Zg-42" edge="1">
                    <mxGeometry relative="1" as="geometry">
                        <mxPoint x="-526.5" y="730" as="targetPoint"/>
                    </mxGeometry>
                </mxCell>
                <mxCell id="65zcl7MSxenypw05f_Zg-44" style="edgeStyle=orthogonalEdgeStyle;rounded=0;orthogonalLoop=1;jettySize=auto;html=1;dashed=1;exitX=0;exitY=0.5;exitDx=0;exitDy=0;" parent="1" source="65zcl7MSxenypw05f_Zg-42" edge="1">
                    <mxGeometry relative="1" as="geometry">
                        <mxPoint x="-807.5" y="370" as="targetPoint"/>
                    </mxGeometry>
                </mxCell>
                <mxCell id="65zcl7MSxenypw05f_Zg-42" value="GameAttendeeAllocation" style="swimlane;fontStyle=0;childLayout=stackLayout;horizontal=1;startSize=26;fillColor=#dae8fc;horizontalStack=0;resizeParent=1;resizeParentMax=0;resizeLast=0;collapsible=1;marginBottom=0;whiteSpace=wrap;html=1;strokeColor=#6c8ebf;" parent="1" vertex="1">
                    <mxGeometry x="-795" y="746" width="160" height="32" as="geometry"/>
                </mxCell>
                <mxCell id="65zcl7MSxenypw05f_Zg-46" style="edgeStyle=orthogonalEdgeStyle;rounded=0;orthogonalLoop=1;jettySize=auto;html=1;dashed=1;exitX=0.75;exitY=1;exitDx=0;exitDy=0;" parent="1" source="65zcl7MSxenypw05f_Zg-45" edge="1">
                    <mxGeometry relative="1" as="geometry">
                        <mxPoint x="-557.5" y="730" as="targetPoint"/>
                        <Array as="points">
                            <mxPoint x="-706.5" y="730"/>
                        </Array>
                    </mxGeometry>
                </mxCell>
                <mxCell id="65zcl7MSxenypw05f_Zg-57" value="player1" style="rounded=0;orthogonalLoop=1;jettySize=auto;html=1;exitX=0.313;exitY=-0.029;exitDx=0;exitDy=0;dashed=1;exitPerimeter=0;" parent="1" edge="1">
                    <mxGeometry x="-0.1936" y="1" relative="1" as="geometry">
                        <mxPoint x="-784.3704555279369" y="367" as="targetPoint"/>
                        <mxPoint x="-782.38" y="573.072" as="sourcePoint"/>
                        <mxPoint as="offset"/>
                    </mxGeometry>
                </mxCell>
                <mxCell id="65zcl7MSxenypw05f_Zg-45" value="GameEvent" style="swimlane;fontStyle=0;childLayout=stackLayout;horizontal=1;startSize=26;fillColor=#dae8fc;horizontalStack=0;resizeParent=1;resizeParentMax=0;resizeLast=0;collapsible=1;marginBottom=0;whiteSpace=wrap;html=1;strokeColor=#6c8ebf;" parent="1" vertex="1">
                    <mxGeometry x="-787.5" y="574" width="102.95" height="32" as="geometry"/>
                </mxCell>
                <mxCell id="65zcl7MSxenypw05f_Zg-56" value="&lt;span style=&quot;font-size: 25px;&quot;&gt;*&lt;/span&gt;" style="rounded=0;orthogonalLoop=1;jettySize=auto;html=1;labelBackgroundColor=none;entryX=0.5;entryY=0;entryDx=0;entryDy=0;" parent="1" source="65zcl7MSxenypw05f_Zg-47" target="65zcl7MSxenypw05f_Zg-48" edge="1">
                    <mxGeometry x="0.25" y="-15" relative="1" as="geometry">
                        <mxPoint x="-315.5" y="260" as="targetPoint"/>
                        <mxPoint as="offset"/>
                    </mxGeometry>
                </mxCell>
                <mxCell id="65zcl7MSxenypw05f_Zg-120" style="edgeStyle=orthogonalEdgeStyle;rounded=0;orthogonalLoop=1;jettySize=auto;html=1;exitX=0.999;exitY=0.198;exitDx=0;exitDy=0;dashed=1;exitPerimeter=0;" parent="1" source="65zcl7MSxenypw05f_Zg-47" target="65zcl7MSxenypw05f_Zg-76" edge="1">
                    <mxGeometry relative="1" as="geometry">
                        <mxPoint x="-237.49999999999994" y="207" as="sourcePoint"/>
                        <mxPoint x="-53.45" y="448" as="targetPoint"/>
                        <Array as="points">
                            <mxPoint x="-268.5" y="207"/>
                            <mxPoint x="-53.5" y="207"/>
                        </Array>
                    </mxGeometry>
                </mxCell>
                <mxCell id="65zcl7MSxenypw05f_Zg-47" value="Schedule" style="swimlane;fontStyle=0;childLayout=stackLayout;horizontal=1;startSize=26;fillColor=#dae8fc;horizontalStack=0;resizeParent=1;resizeParentMax=0;resizeLast=0;collapsible=1;marginBottom=0;whiteSpace=wrap;html=1;strokeColor=#6c8ebf;" parent="1" vertex="1">
                    <mxGeometry x="-380.55" y="199" width="112" height="32" as="geometry"/>
                </mxCell>
                <mxCell id="65zcl7MSxenypw05f_Zg-54" value="" style="edgeStyle=orthogonalEdgeStyle;rounded=0;orthogonalLoop=1;jettySize=auto;html=1;entryX=1;entryY=0.75;entryDx=0;entryDy=0;exitX=1;exitY=0.25;exitDx=0;exitDy=0;dashed=1;fontSize=25;" parent="1" source="65zcl7MSxenypw05f_Zg-48" target="65zcl7MSxenypw05f_Zg-32" edge="1">
                    <mxGeometry x="0.9197" y="-15" relative="1" as="geometry">
                        <mxPoint x="-471.55" y="724" as="targetPoint"/>
                        <Array as="points">
                            <mxPoint x="-227.5" y="268"/>
                            <mxPoint x="-227.5" y="716"/>
                            <mxPoint x="-421.5" y="716"/>
                        </Array>
                        <mxPoint as="offset"/>
                    </mxGeometry>
                </mxCell>
                <mxCell id="65zcl7MSxenypw05f_Zg-48" value="ScheduleGame" style="swimlane;fontStyle=0;childLayout=stackLayout;horizontal=1;startSize=26;horizontalStack=0;resizeParent=1;resizeParentMax=0;resizeLast=0;collapsible=1;marginBottom=0;whiteSpace=wrap;html=1;" parent="1" vertex="1">
                    <mxGeometry x="-380.55" y="260" width="112" height="30" as="geometry"/>
                </mxCell>
                <mxCell id="65zcl7MSxenypw05f_Zg-58" value="player2" style="rounded=0;orthogonalLoop=1;jettySize=auto;html=1;exitX=0.67;exitY=0.004;exitDx=0;exitDy=0;dashed=1;exitPerimeter=0;" parent="1" edge="1">
                    <mxGeometry x="0.0202" relative="1" as="geometry">
                        <mxPoint x="-762.5" y="370" as="targetPoint"/>
                        <mxPoint x="-762.25" y="574.1279999999999" as="sourcePoint"/>
                        <mxPoint as="offset"/>
                    </mxGeometry>
                </mxCell>
                <mxCell id="65zcl7MSxenypw05f_Zg-62" style="edgeStyle=orthogonalEdgeStyle;rounded=0;orthogonalLoop=1;jettySize=auto;html=1;entryX=1;entryY=0.25;entryDx=0;entryDy=0;dashed=1;exitX=1;exitY=0.5;exitDx=0;exitDy=0;" parent="1" source="65zcl7MSxenypw05f_Zg-48" target="65zcl7MSxenypw05f_Zg-14" edge="1">
                    <mxGeometry relative="1" as="geometry">
                        <mxPoint x="-411.55" y="703" as="sourcePoint"/>
                        <mxPoint x="-355.55" y="499" as="targetPoint"/>
                    </mxGeometry>
                </mxCell>
                <mxCell id="65zcl7MSxenypw05f_Zg-63" style="edgeStyle=orthogonalEdgeStyle;rounded=0;orthogonalLoop=1;jettySize=auto;html=1;entryX=1;entryY=0.25;entryDx=0;entryDy=0;dashed=1;exitX=1;exitY=0.5;exitDx=0;exitDy=0;" parent="1" source="65zcl7MSxenypw05f_Zg-48" target="65zcl7MSxenypw05f_Zg-18" edge="1">
                    <mxGeometry relative="1" as="geometry">
                        <mxPoint x="-246.55" y="749" as="sourcePoint"/>
                        <mxPoint x="-269.55" y="492" as="targetPoint"/>
                    </mxGeometry>
                </mxCell>
                <mxCell id="65zcl7MSxenypw05f_Zg-64" style="edgeStyle=orthogonalEdgeStyle;rounded=0;orthogonalLoop=1;jettySize=auto;html=1;entryX=1;entryY=0.25;entryDx=0;entryDy=0;dashed=1;exitX=1;exitY=0.5;exitDx=0;exitDy=0;" parent="1" source="65zcl7MSxenypw05f_Zg-48" target="65zcl7MSxenypw05f_Zg-19" edge="1">
                    <mxGeometry relative="1" as="geometry">
                        <mxPoint x="-246.55" y="749" as="sourcePoint"/>
                        <mxPoint x="-269.55" y="562" as="targetPoint"/>
                    </mxGeometry>
                </mxCell>
                <mxCell id="65zcl7MSxenypw05f_Zg-72" value="&lt;span style=&quot;font-size: 25px;&quot;&gt;*&lt;/span&gt;" style="edgeStyle=orthogonalEdgeStyle;rounded=0;orthogonalLoop=1;jettySize=auto;html=1;entryX=0.555;entryY=-0.016;entryDx=0;entryDy=0;dashed=1;exitX=0;exitY=0.25;exitDx=0;exitDy=0;entryPerimeter=0;labelBackgroundColor=none;" parent="1" source="65zcl7MSxenypw05f_Zg-47" target="65zcl7MSxenypw05f_Zg-5" edge="1">
                    <mxGeometry x="-0.7791" y="-7" relative="1" as="geometry">
                        <mxPoint x="-234.55" y="749" as="sourcePoint"/>
                        <mxPoint x="-269.55" y="594" as="targetPoint"/>
                        <mxPoint as="offset"/>
                    </mxGeometry>
                </mxCell>
                <mxCell id="65zcl7MSxenypw05f_Zg-73" style="edgeStyle=orthogonalEdgeStyle;rounded=0;orthogonalLoop=1;jettySize=auto;html=1;dashed=1;exitX=0.5;exitY=0;exitDx=0;exitDy=0;entryX=1;entryY=0.25;entryDx=0;entryDy=0;" parent="1" source="65zcl7MSxenypw05f_Zg-47" target="65zcl7MSxenypw05f_Zg-17" edge="1">
                    <mxGeometry relative="1" as="geometry">
                        <mxPoint x="-234.55" y="812" as="sourcePoint"/>
                        <mxPoint x="-474.55" y="99" as="targetPoint"/>
                        <Array as="points">
                            <mxPoint x="-324.5" y="111"/>
                        </Array>
                    </mxGeometry>
                </mxCell>
                <mxCell id="65zcl7MSxenypw05f_Zg-84" value="&lt;span style=&quot;font-size: 25px;&quot;&gt;*&lt;/span&gt;" style="edgeStyle=orthogonalEdgeStyle;rounded=0;orthogonalLoop=1;jettySize=auto;html=1;labelBackgroundColor=none;" parent="1" edge="1">
                    <mxGeometry x="0.5238" y="15" relative="1" as="geometry">
                        <mxPoint x="-48.049999999999955" y="363" as="sourcePoint"/>
                        <mxPoint x="-48.049999999999955" y="512.0000000000001" as="targetPoint"/>
                        <mxPoint as="offset"/>
                    </mxGeometry>
                </mxCell>
                <mxCell id="65zcl7MSxenypw05f_Zg-76" value="Draw" style="swimlane;fontStyle=0;childLayout=stackLayout;horizontal=1;startSize=26;fillColor=#dae8fc;horizontalStack=0;resizeParent=1;resizeParentMax=0;resizeLast=0;collapsible=1;marginBottom=0;whiteSpace=wrap;html=1;strokeColor=#6c8ebf;" parent="1" vertex="1">
                    <mxGeometry x="-175.5" y="331" width="143.95" height="32" as="geometry"/>
                </mxCell>
                <mxCell id="65zcl7MSxenypw05f_Zg-77" value="TimeSlotConfig" style="swimlane;fontStyle=0;childLayout=stackLayout;horizontal=1;startSize=26;horizontalStack=0;resizeParent=1;resizeParentMax=0;resizeLast=0;collapsible=1;marginBottom=0;whiteSpace=wrap;html=1;" parent="1" vertex="1">
                    <mxGeometry x="-182.5" y="414" width="109.05" height="34" as="geometry"/>
                </mxCell>
                <mxCell id="65zcl7MSxenypw05f_Zg-85" value="&lt;span style=&quot;font-size: 25px;&quot;&gt;*&lt;/span&gt;" style="edgeStyle=orthogonalEdgeStyle;rounded=0;orthogonalLoop=1;jettySize=auto;html=1;labelBackgroundColor=none;" parent="1" source="65zcl7MSxenypw05f_Zg-79" target="65zcl7MSxenypw05f_Zg-80" edge="1">
                    <mxGeometry x="0.6" y="15" relative="1" as="geometry">
                        <mxPoint as="offset"/>
                    </mxGeometry>
                </mxCell>
                <mxCell id="65zcl7MSxenypw05f_Zg-79" value="DivisionDraw" style="swimlane;fontStyle=0;childLayout=stackLayout;horizontal=1;startSize=26;horizontalStack=0;resizeParent=1;resizeParentMax=0;resizeLast=0;collapsible=1;marginBottom=0;whiteSpace=wrap;html=1;" parent="1" vertex="1">
                    <mxGeometry x="-126.55000000000001" y="512" width="95" height="30" as="geometry"/>
                </mxCell>
                <mxCell id="65zcl7MSxenypw05f_Zg-86" value="&lt;span style=&quot;font-size: 25px;&quot;&gt;*&lt;/span&gt;" style="edgeStyle=orthogonalEdgeStyle;rounded=0;orthogonalLoop=1;jettySize=auto;html=1;labelBackgroundColor=none;" parent="1" source="65zcl7MSxenypw05f_Zg-80" target="65zcl7MSxenypw05f_Zg-81" edge="1">
                    <mxGeometry x="0.6" y="15" relative="1" as="geometry">
                        <mxPoint as="offset"/>
                    </mxGeometry>
                </mxCell>
                <mxCell id="65zcl7MSxenypw05f_Zg-80" value="Step" style="swimlane;fontStyle=0;childLayout=stackLayout;horizontal=1;startSize=26;horizontalStack=0;resizeParent=1;resizeParentMax=0;resizeLast=0;collapsible=1;marginBottom=0;whiteSpace=wrap;html=1;" parent="1" vertex="1">
                    <mxGeometry x="-126.55000000000001" y="572" width="95" height="30" as="geometry"/>
                </mxCell>
                <mxCell id="65zcl7MSxenypw05f_Zg-87" value="&lt;span style=&quot;font-size: 25px;&quot;&gt;*&lt;/span&gt;" style="edgeStyle=orthogonalEdgeStyle;rounded=0;orthogonalLoop=1;jettySize=auto;html=1;labelBackgroundColor=none;" parent="1" source="65zcl7MSxenypw05f_Zg-81" target="65zcl7MSxenypw05f_Zg-82" edge="1">
                    <mxGeometry x="0.3333" y="15" relative="1" as="geometry">
                        <Array as="points">
                            <mxPoint x="-61.55000000000001" y="682"/>
                            <mxPoint x="-61.55000000000001" y="682"/>
                        </Array>
                        <mxPoint as="offset"/>
                    </mxGeometry>
                </mxCell>
                <mxCell id="65zcl7MSxenypw05f_Zg-91" value="&lt;div style=&quot;color: rgb(59, 59, 59); font-family: Consolas, &amp;quot;Courier New&amp;quot;, monospace; font-size: 9px; line-height: 19px; white-space-collapse: preserve;&quot;&gt;&lt;span style=&quot;color: rgb(0, 16, 128); font-size: 9px;&quot;&gt;inputTeamRankedIds&lt;/span&gt;&lt;/div&gt;" style="edgeStyle=orthogonalEdgeStyle;rounded=0;orthogonalLoop=1;jettySize=auto;html=1;dashed=1;fillColor=#fff2cc;strokeColor=#d6b656;exitX=0;exitY=0.25;exitDx=0;exitDy=0;fontSize=9;labelBackgroundColor=none;entryX=1;entryY=0.25;entryDx=0;entryDy=0;strokeWidth=2;" parent="1" source="65zcl7MSxenypw05f_Zg-81" target="65zcl7MSxenypw05f_Zg-26" edge="1">
                    <mxGeometry x="-0.2956" y="-9" relative="1" as="geometry">
                        <mxPoint x="-582.5" y="549" as="targetPoint"/>
                        <Array as="points">
                            <mxPoint x="-284.5" y="640"/>
                            <mxPoint x="-434.5" y="639"/>
                            <mxPoint x="-434.5" y="552"/>
                        </Array>
                        <mxPoint as="offset"/>
                    </mxGeometry>
                </mxCell>
                <mxCell id="65zcl7MSxenypw05f_Zg-81" value="Group" style="swimlane;fontStyle=0;childLayout=stackLayout;horizontal=1;startSize=26;horizontalStack=0;resizeParent=1;resizeParentMax=0;resizeLast=0;collapsible=1;marginBottom=0;whiteSpace=wrap;html=1;" parent="1" vertex="1">
                    <mxGeometry x="-126.55000000000001" y="632" width="95" height="30" as="geometry"/>
                </mxCell>
                <mxCell id="65zcl7MSxenypw05f_Zg-88" value="&lt;span style=&quot;font-size: 25px;&quot;&gt;*&lt;/span&gt;" style="edgeStyle=orthogonalEdgeStyle;rounded=0;orthogonalLoop=1;jettySize=auto;html=1;labelBackgroundColor=none;" parent="1" source="65zcl7MSxenypw05f_Zg-82" target="65zcl7MSxenypw05f_Zg-83" edge="1">
                    <mxGeometry x="0.6" y="15" relative="1" as="geometry">
                        <mxPoint as="offset"/>
                    </mxGeometry>
                </mxCell>
                <mxCell id="65zcl7MSxenypw05f_Zg-82" value="Round" style="swimlane;fontStyle=0;childLayout=stackLayout;horizontal=1;startSize=26;horizontalStack=0;resizeParent=1;resizeParentMax=0;resizeLast=0;collapsible=1;marginBottom=0;whiteSpace=wrap;html=1;" parent="1" vertex="1">
                    <mxGeometry x="-126.55000000000001" y="692" width="95" height="30" as="geometry"/>
                </mxCell>
                <mxCell id="65zcl7MSxenypw05f_Zg-83" value="RoundGame" style="swimlane;fontStyle=0;childLayout=stackLayout;horizontal=1;startSize=26;horizontalStack=0;resizeParent=1;resizeParentMax=0;resizeLast=0;collapsible=1;marginBottom=0;whiteSpace=wrap;html=1;" parent="1" vertex="1">
                    <mxGeometry x="-126.55000000000001" y="754" width="95" height="30" as="geometry"/>
                </mxCell>
                <mxCell id="65zcl7MSxenypw05f_Zg-89" value="*" style="rounded=0;orthogonalLoop=1;jettySize=auto;html=1;dashed=1;fontSize=25;labelBackgroundColor=none;entryX=0.431;entryY=0.032;entryDx=0;entryDy=0;entryPerimeter=0;" parent="1" target="65zcl7MSxenypw05f_Zg-77" edge="1">
                    <mxGeometry x="0.7603" y="17" relative="1" as="geometry">
                        <mxPoint x="-44.54999999999973" y="314" as="targetPoint"/>
                        <mxPoint x="-135.5" y="360" as="sourcePoint"/>
                        <mxPoint as="offset"/>
                    </mxGeometry>
                </mxCell>
                <mxCell id="65zcl7MSxenypw05f_Zg-92" value="&lt;span style=&quot;color: rgb(0, 16, 128); font-family: Consolas, &amp;quot;Courier New&amp;quot;, monospace; font-size: 9px; white-space-collapse: preserve;&quot;&gt;outputTeamRankedIds&lt;/span&gt;" style="edgeStyle=orthogonalEdgeStyle;rounded=0;orthogonalLoop=1;jettySize=auto;html=1;dashed=1;fillColor=#fff2cc;strokeColor=#d6b656;exitX=0;exitY=0.5;exitDx=0;exitDy=0;entryX=1;entryY=0.5;entryDx=0;entryDy=0;labelBackgroundColor=none;strokeWidth=2;" parent="1" source="65zcl7MSxenypw05f_Zg-81" target="65zcl7MSxenypw05f_Zg-26" edge="1">
                    <mxGeometry x="-0.2914" y="10" relative="1" as="geometry">
                        <mxPoint x="-51.55" y="705" as="sourcePoint"/>
                        <mxPoint x="-594.55" y="559" as="targetPoint"/>
                        <Array as="points">
                            <mxPoint x="-186.5" y="647"/>
                            <mxPoint x="-186.5" y="650"/>
                            <mxPoint x="-444.5" y="650"/>
                            <mxPoint x="-444.5" y="552"/>
                        </Array>
                        <mxPoint as="offset"/>
                    </mxGeometry>
                </mxCell>
                <mxCell id="65zcl7MSxenypw05f_Zg-93" value="&lt;font style=&quot;font-size: 8px;&quot;&gt;teamB&lt;/font&gt;" style="rounded=0;orthogonalLoop=1;jettySize=auto;html=1;dashed=1;fontSize=8;labelBackgroundColor=none;edgeStyle=orthogonalEdgeStyle;verticalAlign=bottom;exitX=0.909;exitY=0.913;exitDx=0;exitDy=0;exitPerimeter=0;" parent="1" source="65zcl7MSxenypw05f_Zg-83" edge="1">
                    <mxGeometry x="-0.0088" y="16" relative="1" as="geometry">
                        <mxPoint x="-120.5" y="780" as="targetPoint"/>
                        <mxPoint x="-40.5" y="780" as="sourcePoint"/>
                        <mxPoint as="offset"/>
                        <Array as="points">
                            <mxPoint x="-40.5" y="780"/>
                            <mxPoint x="-40.5" y="780"/>
                            <mxPoint x="-40.5" y="824"/>
                            <mxPoint x="-120.5" y="824"/>
                        </Array>
                    </mxGeometry>
                </mxCell>
                <mxCell id="65zcl7MSxenypw05f_Zg-94" value="&lt;span style=&quot;font-size: 8px;&quot;&gt;teamA&lt;/span&gt;" style="rounded=0;orthogonalLoop=1;jettySize=auto;html=1;dashed=1;fontSize=8;labelBackgroundColor=none;edgeStyle=orthogonalEdgeStyle;verticalAlign=bottom;exitX=0.75;exitY=1;exitDx=0;exitDy=0;" parent="1" source="65zcl7MSxenypw05f_Zg-83" edge="1">
                    <mxGeometry x="0.1847" y="-4" relative="1" as="geometry">
                        <mxPoint x="-107.55000000000001" y="784" as="targetPoint"/>
                        <mxPoint x="-65.5" y="784" as="sourcePoint"/>
                        <mxPoint as="offset"/>
                        <Array as="points">
                            <mxPoint x="-56.5" y="784"/>
                            <mxPoint x="-56.5" y="790"/>
                            <mxPoint x="-55.5" y="790"/>
                            <mxPoint x="-55.5" y="814"/>
                            <mxPoint x="-107.5" y="814"/>
                        </Array>
                    </mxGeometry>
                </mxCell>
                <mxCell id="65zcl7MSxenypw05f_Zg-115" style="edgeStyle=orthogonalEdgeStyle;rounded=0;orthogonalLoop=1;jettySize=auto;html=1;entryX=0;entryY=0.5;entryDx=0;entryDy=0;dashed=1;" parent="1" source="65zcl7MSxenypw05f_Zg-96" target="65zcl7MSxenypw05f_Zg-79" edge="1">
                    <mxGeometry relative="1" as="geometry">
                        <mxPoint x="-134.5" y="530" as="targetPoint"/>
                        <Array as="points">
                            <mxPoint x="-174.5" y="790"/>
                            <mxPoint x="-174.5" y="527"/>
                        </Array>
                    </mxGeometry>
                </mxCell>
                <mxCell id="65zcl7MSxenypw05f_Zg-96" value="ScheduleInfo" style="swimlane;fontStyle=0;childLayout=stackLayout;horizontal=1;startSize=26;horizontalStack=0;resizeParent=1;resizeParentMax=0;resizeLast=0;collapsible=1;marginBottom=0;whiteSpace=wrap;html=1;" parent="1" vertex="1">
                    <mxGeometry x="-556.55" y="775" width="130" height="30" as="geometry"/>
                </mxCell>
                <mxCell id="65zcl7MSxenypw05f_Zg-75" value="SlotType" style="swimlane;fontStyle=0;childLayout=stackLayout;horizontal=1;startSize=26;horizontalStack=0;resizeParent=1;resizeParentMax=0;resizeLast=0;collapsible=1;marginBottom=0;whiteSpace=wrap;html=1;" parent="1" vertex="1">
                    <mxGeometry x="-167.98" y="472.5" width="80" height="32" as="geometry"/>
                </mxCell>
                <mxCell id="65zcl7MSxenypw05f_Zg-90" style="rounded=0;orthogonalLoop=1;jettySize=auto;html=1;" parent="1" source="65zcl7MSxenypw05f_Zg-77" target="65zcl7MSxenypw05f_Zg-75" edge="1">
                    <mxGeometry relative="1" as="geometry"/>
                </mxCell>
                <mxCell id="65zcl7MSxenypw05f_Zg-105" style="edgeStyle=orthogonalEdgeStyle;rounded=0;orthogonalLoop=1;jettySize=auto;html=1;dashed=1;exitX=0.614;exitY=0.037;exitDx=0;exitDy=0;exitPerimeter=0;entryX=0;entryY=0.75;entryDx=0;entryDy=0;" parent="1" source="65zcl7MSxenypw05f_Zg-5" target="65zcl7MSxenypw05f_Zg-47" edge="1">
                    <mxGeometry relative="1" as="geometry">
                        <mxPoint x="-370.5" y="217" as="sourcePoint"/>
                        <mxPoint x="-407.5" y="270" as="targetPoint"/>
                    </mxGeometry>
                </mxCell>
                <mxCell id="65zcl7MSxenypw05f_Zg-106" style="edgeStyle=orthogonalEdgeStyle;rounded=0;orthogonalLoop=1;jettySize=auto;html=1;dashed=1;exitX=1;exitY=0.5;exitDx=0;exitDy=0;entryX=0;entryY=0.5;entryDx=0;entryDy=0;fillColor=#fff2cc;strokeColor=#d6b656;strokeWidth=2;" parent="1" source="65zcl7MSxenypw05f_Zg-5" target="65zcl7MSxenypw05f_Zg-76" edge="1">
                    <mxGeometry relative="1" as="geometry">
                        <mxPoint x="-407.5" y="403" as="sourcePoint"/>
                        <mxPoint x="-370.5" y="233" as="targetPoint"/>
                        <Array as="points">
                            <mxPoint x="-204.5" y="406"/>
                            <mxPoint x="-204.5" y="347"/>
                        </Array>
                    </mxGeometry>
                </mxCell>
                <mxCell id="65zcl7MSxenypw05f_Zg-107" value="&lt;div style=&quot;background-color: rgb(255, 255, 255); font-family: Consolas, &amp;quot;Courier New&amp;quot;, monospace; font-size: 11px; line-height: 19px; white-space: pre;&quot;&gt;TournamentManager&lt;/div&gt;" style="swimlane;fontStyle=0;childLayout=stackLayout;horizontal=1;startSize=26;horizontalStack=0;resizeParent=1;resizeParentMax=0;resizeLast=0;collapsible=1;marginBottom=0;whiteSpace=wrap;html=1;fontSize=11;" parent="1" vertex="1">
                    <mxGeometry x="-647.5" y="332" width="137" height="30" as="geometry"/>
                </mxCell>
                <mxCell id="65zcl7MSxenypw05f_Zg-108" value="&lt;span style=&quot;font-size: 25px;&quot;&gt;*&lt;/span&gt;" style="rounded=0;orthogonalLoop=1;jettySize=auto;html=1;entryX=0.5;entryY=1;entryDx=0;entryDy=0;dashed=1;exitX=0.184;exitY=0.017;exitDx=0;exitDy=0;exitPerimeter=0;labelBackgroundColor=none;" parent="1" source="65zcl7MSxenypw05f_Zg-5" target="65zcl7MSxenypw05f_Zg-107" edge="1">
                    <mxGeometry x="-0.2444" y="-11" relative="1" as="geometry">
                        <mxPoint x="-603.5" y="350" as="sourcePoint"/>
                        <mxPoint x="-684.5" y="341" as="targetPoint"/>
                        <mxPoint as="offset"/>
                    </mxGeometry>
                </mxCell>
                <mxCell id="65zcl7MSxenypw05f_Zg-112" style="edgeStyle=orthogonalEdgeStyle;rounded=0;orthogonalLoop=1;jettySize=auto;html=1;entryX=0.018;entryY=0.65;entryDx=0;entryDy=0;labelBackgroundColor=none;dashed=1;fillColor=#fff2cc;strokeColor=#000000;entryPerimeter=0;" parent="1" target="65zcl7MSxenypw05f_Zg-26" edge="1">
                    <mxGeometry relative="1" as="geometry">
                        <mxPoint x="-737.5" y="367" as="sourcePoint"/>
                        <mxPoint x="-637.5" y="416" as="targetPoint"/>
                        <Array as="points">
                            <mxPoint x="-737.5" y="557"/>
                            <mxPoint x="-652.5" y="557"/>
                        </Array>
                    </mxGeometry>
                </mxCell>
                <mxCell id="65zcl7MSxenypw05f_Zg-113" style="edgeStyle=orthogonalEdgeStyle;rounded=0;orthogonalLoop=1;jettySize=auto;html=1;labelBackgroundColor=none;dashed=1;fillColor=#fff2cc;strokeColor=#000000;entryX=0;entryY=0.25;entryDx=0;entryDy=0;" parent="1" target="65zcl7MSxenypw05f_Zg-26" edge="1">
                    <mxGeometry relative="1" as="geometry">
                        <mxPoint x="-684.5" y="370" as="sourcePoint"/>
                        <mxPoint x="-684.5" y="530" as="targetPoint"/>
                        <Array as="points">
                            <mxPoint x="-684.5" y="543"/>
                        </Array>
                    </mxGeometry>
                </mxCell>
                <mxCell id="65zcl7MSxenypw05f_Zg-116" style="edgeStyle=orthogonalEdgeStyle;rounded=0;orthogonalLoop=1;jettySize=auto;html=1;entryX=0;entryY=0.5;entryDx=0;entryDy=0;dashed=1;exitX=1;exitY=0.5;exitDx=0;exitDy=0;" parent="1" source="65zcl7MSxenypw05f_Zg-96" target="65zcl7MSxenypw05f_Zg-80" edge="1">
                    <mxGeometry relative="1" as="geometry">
                        <mxPoint x="-105.5" y="537" as="targetPoint"/>
                        <mxPoint x="-416.5" y="796" as="sourcePoint"/>
                        <Array as="points">
                            <mxPoint x="-174.5" y="790"/>
                            <mxPoint x="-174.5" y="587"/>
                        </Array>
                    </mxGeometry>
                </mxCell>
                <mxCell id="65zcl7MSxenypw05f_Zg-117" style="edgeStyle=orthogonalEdgeStyle;rounded=0;orthogonalLoop=1;jettySize=auto;html=1;entryX=0;entryY=0.75;entryDx=0;entryDy=0;dashed=1;exitX=1;exitY=0.5;exitDx=0;exitDy=0;" parent="1" source="65zcl7MSxenypw05f_Zg-96" target="65zcl7MSxenypw05f_Zg-81" edge="1">
                    <mxGeometry relative="1" as="geometry">
                        <mxPoint x="-105.5" y="597" as="targetPoint"/>
                        <mxPoint x="-416.5" y="796" as="sourcePoint"/>
                        <Array as="points">
                            <mxPoint x="-174.5" y="790"/>
                            <mxPoint x="-174.5" y="654"/>
                        </Array>
                    </mxGeometry>
                </mxCell>
                <mxCell id="65zcl7MSxenypw05f_Zg-118" style="edgeStyle=orthogonalEdgeStyle;rounded=0;orthogonalLoop=1;jettySize=auto;html=1;entryX=0;entryY=0.5;entryDx=0;entryDy=0;dashed=1;exitX=1;exitY=0.5;exitDx=0;exitDy=0;" parent="1" source="65zcl7MSxenypw05f_Zg-96" target="65zcl7MSxenypw05f_Zg-82" edge="1">
                    <mxGeometry relative="1" as="geometry">
                        <mxPoint x="-105.5" y="665" as="targetPoint"/>
                        <mxPoint x="-416.5" y="796" as="sourcePoint"/>
                        <Array as="points">
                            <mxPoint x="-426.5" y="790"/>
                            <mxPoint x="-174.5" y="790"/>
                            <mxPoint x="-174.5" y="707"/>
                        </Array>
                    </mxGeometry>
                </mxCell>
                <mxCell id="65zcl7MSxenypw05f_Zg-119" style="edgeStyle=orthogonalEdgeStyle;rounded=0;orthogonalLoop=1;jettySize=auto;html=1;entryX=0;entryY=0.5;entryDx=0;entryDy=0;dashed=1;exitX=1;exitY=0.5;exitDx=0;exitDy=0;" parent="1" source="65zcl7MSxenypw05f_Zg-96" target="65zcl7MSxenypw05f_Zg-83" edge="1">
                    <mxGeometry relative="1" as="geometry">
                        <mxPoint x="-105.5" y="717" as="targetPoint"/>
                        <mxPoint x="-416.5" y="800" as="sourcePoint"/>
                        <Array as="points">
                            <mxPoint x="-174.5" y="790"/>
                            <mxPoint x="-174.5" y="769"/>
                        </Array>
                    </mxGeometry>
                </mxCell>
                <mxCell id="65zcl7MSxenypw05f_Zg-121" style="edgeStyle=orthogonalEdgeStyle;rounded=0;orthogonalLoop=1;jettySize=auto;html=1;dashed=1;exitX=0;exitY=0.25;exitDx=0;exitDy=0;entryX=1;entryY=0.25;entryDx=0;entryDy=0;fillColor=#fff2cc;strokeColor=#d6b656;strokeWidth=2;" parent="1" source="65zcl7MSxenypw05f_Zg-76" target="65zcl7MSxenypw05f_Zg-5" edge="1">
                    <mxGeometry relative="1" as="geometry">
                        <mxPoint x="-244.5" y="379" as="sourcePoint"/>
                        <mxPoint x="-72.5" y="421" as="targetPoint"/>
                        <Array as="points">
                            <mxPoint x="-234.5" y="339"/>
                            <mxPoint x="-234.5" y="398"/>
                        </Array>
                    </mxGeometry>
                </mxCell>
                <mxCell id="65zcl7MSxenypw05f_Zg-122" style="edgeStyle=orthogonalEdgeStyle;rounded=0;orthogonalLoop=1;jettySize=auto;html=1;dashed=1;exitX=0;exitY=0.75;exitDx=0;exitDy=0;entryX=1;entryY=0.5;entryDx=0;entryDy=0;fillColor=#fff2cc;strokeColor=#d6b656;strokeWidth=2;" parent="1" source="65zcl7MSxenypw05f_Zg-77" target="65zcl7MSxenypw05f_Zg-14" edge="1">
                    <mxGeometry relative="1" as="geometry">
                        <mxPoint x="-58.5" y="458" as="sourcePoint"/>
                        <mxPoint x="-267.5" y="408" as="targetPoint"/>
                        <Array as="points">
                            <mxPoint x="-184" y="439"/>
                            <mxPoint x="-194" y="440"/>
                            <mxPoint x="-194" y="489"/>
                        </Array>
                    </mxGeometry>
                </mxCell>
                <mxCell id="65zcl7MSxenypw05f_Zg-123" style="edgeStyle=orthogonalEdgeStyle;rounded=0;orthogonalLoop=1;jettySize=auto;html=1;dashed=1;exitX=0;exitY=0.25;exitDx=0;exitDy=0;entryX=0.75;entryY=0;entryDx=0;entryDy=0;fillColor=#ffcd28;strokeColor=#d79b00;gradientColor=#ffa500;strokeWidth=2;" parent="1" source="65zcl7MSxenypw05f_Zg-77" target="65zcl7MSxenypw05f_Zg-15" edge="1">
                    <mxGeometry relative="1" as="geometry">
                        <mxPoint x="-161.5" y="441" as="sourcePoint"/>
                        <mxPoint x="-269.5" y="507" as="targetPoint"/>
                        <Array as="points">
                            <mxPoint x="-171.5" y="420"/>
                            <mxPoint x="-204.5" y="420"/>
                            <mxPoint x="-204.5" y="450"/>
                            <mxPoint x="-601.5" y="450"/>
                        </Array>
                    </mxGeometry>
                </mxCell>
                <mxCell id="65zcl7MSxenypw05f_Zg-126" value="Tournament Manager Data Model" style="text;html=1;align=center;verticalAlign=middle;whiteSpace=wrap;rounded=0;fontSize=30;fontStyle=1" parent="1" vertex="1">
                    <mxGeometry x="-760" y="20" width="680" height="40" as="geometry"/>
                </mxCell>
                <mxCell id="65zcl7MSxenypw05f_Zg-127" value="FragmentRefereeAllocation" style="swimlane;fontStyle=0;childLayout=stackLayout;horizontal=1;startSize=26;fillColor=#dae8fc;horizontalStack=0;resizeParent=1;resizeParentMax=0;resizeLast=0;collapsible=1;marginBottom=0;whiteSpace=wrap;html=1;strokeColor=#6c8ebf;" parent="1" vertex="1">
                    <mxGeometry x="-810" y="812" width="190" height="32" as="geometry"/>
                </mxCell>
                <mxCell id="65zcl7MSxenypw05f_Zg-128" value="&lt;span style=&quot;color: rgb(0, 0, 0);&quot;&gt;FragmentRefereeAllocationStatistics&lt;/span&gt;" style="swimlane;fontStyle=0;childLayout=stackLayout;horizontal=1;startSize=26;fillColor=#dae8fc;horizontalStack=0;resizeParent=1;resizeParentMax=0;resizeLast=0;collapsible=1;marginBottom=0;whiteSpace=wrap;html=1;strokeColor=#6c8ebf;swimlaneLine=1;rounded=0;glass=0;" parent="1" vertex="1">
                    <mxGeometry x="-571.5999999999999" y="855" width="224.55" height="32" as="geometry"/>
                </mxCell>
                <mxCell id="65zcl7MSxenypw05f_Zg-132" style="rounded=0;orthogonalLoop=1;jettySize=auto;html=1;endArrow=block;endFill=0;entryX=0.108;entryY=0.009;entryDx=0;entryDy=0;exitX=0.75;exitY=1;exitDx=0;exitDy=0;entryPerimeter=0;" parent="1" source="65zcl7MSxenypw05f_Zg-128" target="3" edge="1">
                    <mxGeometry relative="1" as="geometry">
                        <mxPoint x="-225.11666666666656" y="971" as="sourcePoint"/>
                        <mxPoint x="-266.5999999999999" y="997" as="targetPoint"/>
                    </mxGeometry>
                </mxCell>
                <mxCell id="65zcl7MSxenypw05f_Zg-138" style="rounded=0;orthogonalLoop=1;jettySize=auto;html=1;dashed=1;exitX=0.5;exitY=1;exitDx=0;exitDy=0;entryX=0.5;entryY=0;entryDx=0;entryDy=0;" parent="1" source="65zcl7MSxenypw05f_Zg-42" target="65zcl7MSxenypw05f_Zg-127" edge="1">
                    <mxGeometry relative="1" as="geometry">
                        <mxPoint x="-607.5" y="772" as="sourcePoint"/>
                        <mxPoint x="-757" y="840" as="targetPoint"/>
                    </mxGeometry>
                </mxCell>
                <mxCell id="65zcl7MSxenypw05f_Zg-140" style="rounded=0;orthogonalLoop=1;jettySize=auto;html=1;dashed=1;exitX=0;exitY=0.5;exitDx=0;exitDy=0;entryX=1;entryY=0.75;entryDx=0;entryDy=0;" parent="1" source="65zcl7MSxenypw05f_Zg-128" target="65zcl7MSxenypw05f_Zg-127" edge="1">
                    <mxGeometry relative="1" as="geometry">
                        <mxPoint x="-642.5" y="788" as="sourcePoint"/>
                        <mxPoint x="-640" y="990" as="targetPoint"/>
                    </mxGeometry>
                </mxCell>
                <mxCell id="65zcl7MSxenypw05f_Zg-142" style="edgeStyle=orthogonalEdgeStyle;rounded=0;orthogonalLoop=1;jettySize=auto;html=1;dashed=1;entryX=1;entryY=0.75;entryDx=0;entryDy=0;fillColor=#dae8fc;strokeColor=#6c8ebf;strokeWidth=2;exitX=1;exitY=0.5;exitDx=0;exitDy=0;" parent="1" source="65zcl7MSxenypw05f_Zg-127" target="65zcl7MSxenypw05f_Zg-14" edge="1">
                    <mxGeometry relative="1" as="geometry">
                        <mxPoint x="-240" y="540" as="targetPoint"/>
                        <mxPoint x="-230" y="840" as="sourcePoint"/>
                        <Array as="points">
                            <mxPoint x="-240" y="828"/>
                            <mxPoint x="-240" y="496"/>
                        </Array>
                    </mxGeometry>
                </mxCell>
                <mxCell id="65zcl7MSxenypw05f_Zg-143" style="edgeStyle=orthogonalEdgeStyle;rounded=0;orthogonalLoop=1;jettySize=auto;html=1;dashed=1;entryX=1;entryY=0.75;entryDx=0;entryDy=0;fillColor=#e6d0de;gradientColor=#d5739d;strokeColor=#996185;strokeWidth=2;exitX=1;exitY=0.25;exitDx=0;exitDy=0;" parent="1" source="65zcl7MSxenypw05f_Zg-127" target="65zcl7MSxenypw05f_Zg-18" edge="1">
                    <mxGeometry relative="1" as="geometry">
                        <mxPoint x="-270" y="507" as="targetPoint"/>
                        <mxPoint x="-250" y="820" as="sourcePoint"/>
                    </mxGeometry>
                </mxCell>
                <mxCell id="2" value="TournamentRefereeAllocation" style="swimlane;fontStyle=0;childLayout=stackLayout;horizontal=1;startSize=26;fillColor=#dae8fc;horizontalStack=0;resizeParent=1;resizeParentMax=0;resizeLast=0;collapsible=1;marginBottom=0;whiteSpace=wrap;html=1;strokeColor=#6c8ebf;" vertex="1" parent="1">
                    <mxGeometry x="-808" y="900" width="186" height="32" as="geometry"/>
                </mxCell>
                <mxCell id="3" value="CommonRefereeAllocationStatistics" style="swimlane;fontStyle=0;childLayout=stackLayout;horizontal=1;startSize=26;horizontalStack=0;resizeParent=1;resizeParentMax=0;resizeLast=0;collapsible=1;marginBottom=0;whiteSpace=wrap;html=1;" vertex="1" parent="1">
                    <mxGeometry x="-424.99999999999994" y="910" width="201.55" height="30" as="geometry"/>
                </mxCell>
                <mxCell id="5" value="&lt;font style=&quot;font-size: 24px;&quot;&gt;*&lt;/font&gt;" style="rounded=0;orthogonalLoop=1;jettySize=auto;html=1;dashed=1;exitX=0.5;exitY=0;exitDx=0;exitDy=0;entryX=0.5;entryY=1;entryDx=0;entryDy=0;labelBackgroundColor=none;" edge="1" parent="1" source="2" target="65zcl7MSxenypw05f_Zg-127">
                    <mxGeometry x="0.4286" y="9" relative="1" as="geometry">
                        <mxPoint x="-636" y="891.5" as="sourcePoint"/>
                        <mxPoint x="-636" y="935.5" as="targetPoint"/>
                        <mxPoint as="offset"/>
                    </mxGeometry>
                </mxCell>
                <mxCell id="8" style="edgeStyle=orthogonalEdgeStyle;html=1;entryX=0.5;entryY=1;entryDx=0;entryDy=0;exitX=1;exitY=0.5;exitDx=0;exitDy=0;" edge="1" parent="1" source="6" target="3">
                    <mxGeometry relative="1" as="geometry"/>
                </mxCell>
                <mxCell id="6" value="&lt;span style=&quot;color: rgb(0, 0, 0);&quot;&gt;TournamentRefereeAllocationStatistics&lt;/span&gt;" style="swimlane;fontStyle=0;childLayout=stackLayout;horizontal=1;startSize=26;fillColor=#dae8fc;horizontalStack=0;resizeParent=1;resizeParentMax=0;resizeLast=0;collapsible=1;marginBottom=0;whiteSpace=wrap;html=1;strokeColor=#6c8ebf;swimlaneLine=1;rounded=0;glass=0;" vertex="1" parent="1">
                    <mxGeometry x="-571.5999999999999" y="955" width="224.55" height="32" as="geometry"/>
                </mxCell>
                <mxCell id="7" value="&lt;font style=&quot;font-size: 24px;&quot;&gt;*&lt;/font&gt;" style="rounded=0;orthogonalLoop=1;jettySize=auto;html=1;dashed=1;exitX=0.5;exitY=0;exitDx=0;exitDy=0;entryX=0.5;entryY=1;entryDx=0;entryDy=0;labelBackgroundColor=none;" edge="1" parent="1" source="6" target="65zcl7MSxenypw05f_Zg-128">
                    <mxGeometry x="0.2414" y="8" relative="1" as="geometry">
                        <mxPoint x="-570.05" y="923" as="sourcePoint"/>
                        <mxPoint x="-626.05" y="922" as="targetPoint"/>
                        <mxPoint as="offset"/>
                    </mxGeometry>
                </mxCell>
                <mxCell id="9" style="rounded=0;orthogonalLoop=1;jettySize=auto;html=1;dashed=1;exitX=0;exitY=0.5;exitDx=0;exitDy=0;entryX=1;entryY=0.5;entryDx=0;entryDy=0;" edge="1" parent="1" source="6" target="2">
                    <mxGeometry relative="1" as="geometry">
                        <mxPoint x="-575" y="868" as="sourcePoint"/>
                        <mxPoint x="-631" y="867" as="targetPoint"/>
                    </mxGeometry>
                </mxCell>
                <mxCell id="10" style="edgeStyle=orthogonalEdgeStyle;rounded=0;orthogonalLoop=1;jettySize=auto;html=1;dashed=1;entryX=1;entryY=0.25;entryDx=0;entryDy=0;fillColor=#e6d0de;gradientColor=#d5739d;strokeColor=#996185;strokeWidth=2;exitX=1;exitY=0.25;exitDx=0;exitDy=0;" edge="1" parent="1" source="65zcl7MSxenypw05f_Zg-128" target="65zcl7MSxenypw05f_Zg-19">
                    <mxGeometry relative="1" as="geometry">
                        <mxPoint x="-270" y="557" as="targetPoint"/>
                        <mxPoint x="-610" y="830" as="sourcePoint"/>
                    </mxGeometry>
                </mxCell>
                <mxCell id="11" style="edgeStyle=orthogonalEdgeStyle;rounded=0;orthogonalLoop=1;jettySize=auto;html=1;dashed=1;entryX=1;entryY=0.75;entryDx=0;entryDy=0;fillColor=#dae8fc;strokeColor=#6c8ebf;strokeWidth=2;exitX=1;exitY=0.5;exitDx=0;exitDy=0;" edge="1" parent="1" source="65zcl7MSxenypw05f_Zg-128" target="65zcl7MSxenypw05f_Zg-14">
                    <mxGeometry relative="1" as="geometry">
                        <mxPoint x="-270" y="507" as="targetPoint"/>
                        <mxPoint x="-610" y="838" as="sourcePoint"/>
                        <Array as="points">
                            <mxPoint x="-240" y="871"/>
                            <mxPoint x="-240" y="496"/>
                        </Array>
                    </mxGeometry>
                </mxCell>
            </root>
        </mxGraphModel>
    </diagram>
</mxfile>